HIERARCHY
ROOT Junyuan_V1:Solving:Hips
{
	OFFSET 0.000000 0.000000 0.000000
	CHANNELS 6 Xposition Yposition Zposition Xrotation Yrotation Zrotation
	JOINT Junyuan_V1:Solving:Spine
	{
		OFFSET 0.000000 -11.180205 2.228564
		CHANNELS 6 Xposition Yposition Zposition Xrotation Yrotation Zrotation
		JOINT Junyuan_V1:Solving:Spine1
		{
			OFFSET 0.000000 -8.682996 1.531049
			CHANNELS 6 Xposition Yposition Zposition Xrotation Yrotation Zrotation
			JOINT Junyuan_V1:Solving:Spine2
			{
				OFFSET 0.000000 -8.783394 0.768450
				CHANNELS 6 Xposition Yposition Zposition Xrotation Yrotation Zrotation
				JOINT Junyuan_V1:Solving:Spine3
				{
					OFFSET 0.000000 -8.816944 0.000000
					CHANNELS 6 Xposition Yposition Zposition Xrotation Yrotation Zrotation
					JOINT Junyuan_V1:Solving:Neck
					{
						OFFSET 0.000000 -11.336071 -1.133605
						CHANNELS 6 Xposition Yposition Zposition Xrotation Yrotation Zrotation
						JOINT Junyuan_V1:Solving:Neck1
						{
							OFFSET 0.000000 -7.643246 -0.668695
							CHANNELS 6 Xposition Yposition Zposition Xrotation Yrotation Zrotation
							JOINT Junyuan_V1:Solving:Head
							{
								OFFSET 0.000000 -7.555870 -1.332303
								CHANNELS 6 Xposition Yposition Zposition Xrotation Yrotation Zrotation
								JOINT Junyuan_V1:Solving:HeadEnd
								{
									OFFSET 0.000000 -9.728081 0.000002
									CHANNELS 6 Xposition Yposition Zposition Xrotation Yrotation Zrotation
									End Site
									{
										OFFSET 0.000000 -9.728081 0.000002
									}
								}
							}
						}
					}
					JOINT Junyuan_V1:Solving:RightShoulder
					{
						OFFSET 0.000000 -8.097195 -5.270916
						CHANNELS 6 Xposition Yposition Zposition Xrotation Yrotation Zrotation
						JOINT Junyuan_V1:Solving:RightArm
						{
							OFFSET -20.762394 -0.000008 0.000000
							CHANNELS 6 Xposition Yposition Zposition Xrotation Yrotation Zrotation
							JOINT Junyuan_V1:Solving:RightForeArm
							{
								OFFSET -29.048946 -0.000008 0.000000
								CHANNELS 6 Xposition Yposition Zposition Xrotation Yrotation Zrotation
								JOINT Junyuan_V1:Solving:RightHand
								{
									OFFSET -22.031235 -0.000008 0.000000
									CHANNELS 6 Xposition Yposition Zposition Xrotation Yrotation Zrotation
									JOINT Junyuan_V1:Solving:RightHandThumb1
									{
										OFFSET -3.579254 2.890213 -2.661497
										CHANNELS 6 Xposition Yposition Zposition Xrotation Yrotation Zrotation
										End Site
										{
											OFFSET -5.229485 0.000000 -5.277840
										}
									}
									JOINT Junyuan_V1:Solving:RightHandMiddle1
									{
										OFFSET -9.544678 -0.000004 0.061184
										CHANNELS 6 Xposition Yposition Zposition Xrotation Yrotation Zrotation
										End Site
										{
											OFFSET -7.429878 -0.000004 0.000000
										}
									}
								}
							}
						}
					}
					JOINT Junyuan_V1:Solving:LeftShoulder
					{
						OFFSET 0.000000 -8.097195 -5.270916
						CHANNELS 6 Xposition Yposition Zposition Xrotation Yrotation Zrotation
						JOINT Junyuan_V1:Solving:LeftArm
						{
							OFFSET 20.762394 -0.000008 0.000000
							CHANNELS 6 Xposition Yposition Zposition Xrotation Yrotation Zrotation
							JOINT Junyuan_V1:Solving:LeftForeArm
							{
								OFFSET 29.048946 -0.000008 0.000000
								CHANNELS 6 Xposition Yposition Zposition Xrotation Yrotation Zrotation
								JOINT Junyuan_V1:Solving:LeftHand
								{
									OFFSET 22.031235 -0.000008 0.000000
									CHANNELS 6 Xposition Yposition Zposition Xrotation Yrotation Zrotation
									JOINT Junyuan_V1:Solving:LeftHandThumb1
									{
										OFFSET 3.579254 2.890213 -2.661497
										CHANNELS 6 Xposition Yposition Zposition Xrotation Yrotation Zrotation
										End Site
										{
											OFFSET 5.229485 0.000000 -5.277840
										}
									}
									JOINT Junyuan_V1:Solving:LeftHandMiddle1
									{
										OFFSET 9.544678 -0.000004 0.061184
										CHANNELS 6 Xposition Yposition Zposition Xrotation Yrotation Zrotation
										End Site
										{
											OFFSET 7.429878 -0.000004 0.000000
										}
									}
								}
							}
						}
					}
				}
			}
		}
	}
	JOINT Junyuan_V1:Solving:RightUpLeg
	{
		OFFSET -10.825166 0.000000 0.000000
		CHANNELS 6 Xposition Yposition Zposition Xrotation Yrotation Zrotation
		JOINT Junyuan_V1:Solving:RightLeg
		{
			OFFSET 0.000000 43.678444 -0.000006
			CHANNELS 6 Xposition Yposition Zposition Xrotation Yrotation Zrotation
			JOINT Junyuan_V1:Solving:RightFoot
			{
				OFFSET 0.000000 36.488441 -0.000006
				CHANNELS 6 Xposition Yposition Zposition Xrotation Yrotation Zrotation
				JOINT Junyuan_V1:Solving:RightForeFoot
				{
					OFFSET 0.000000 3.967834 -0.000000
					CHANNELS 6 Xposition Yposition Zposition Xrotation Yrotation Zrotation
					JOINT Junyuan_V1:Solving:RightToeBase
					{
						OFFSET 0.000000 0.000000 -15.539299
						CHANNELS 6 Xposition Yposition Zposition Xrotation Yrotation Zrotation
						JOINT Junyuan_V1:Solving:RightToeBaseEnd
						{
							OFFSET 0.000000 0.000000 -3.486985
							CHANNELS 6 Xposition Yposition Zposition Xrotation Yrotation Zrotation
							End Site
							{
								OFFSET 0.000000 -3.486992 0.000000
							}
						}
					}
				}
			}
		}
	}
	JOINT Junyuan_V1:Solving:LeftUpLeg
	{
		OFFSET 10.825166 0.000000 0.000000
		CHANNELS 6 Xposition Yposition Zposition Xrotation Yrotation Zrotation
		JOINT Junyuan_V1:Solving:LeftLeg
		{
			OFFSET 0.000000 43.678444 -0.000006
			CHANNELS 6 Xposition Yposition Zposition Xrotation Yrotation Zrotation
			JOINT Junyuan_V1:Solving:LeftFoot
			{
				OFFSET 0.000000 36.488441 -0.000006
				CHANNELS 6 Xposition Yposition Zposition Xrotation Yrotation Zrotation
				JOINT Junyuan_V1:Solving:LeftForeFoot
				{
					OFFSET 0.000000 3.967834 -0.000000
					CHANNELS 6 Xposition Yposition Zposition Xrotation Yrotation Zrotation
					JOINT Junyuan_V1:Solving:LeftToeBase
					{
						OFFSET 0.000000 0.000000 -15.539299
						CHANNELS 6 Xposition Yposition Zposition Xrotation Yrotation Zrotation
						JOINT Junyuan_V1:Solving:LeftToeBaseEnd
						{
							OFFSET 0.000000 0.000000 -3.974441
							CHANNELS 6 Xposition Yposition Zposition Xrotation Yrotation Zrotation
							End Site
							{
								OFFSET 0.000000 -3.974442 0.000000
							}
						}
					}
				}
			}
		}
	}
}
MOTION
Frames: 4
Frame Time: 0.041667
58.782928 -35.619637 -89.315224 71.918982 -175.802239 -2.946745 0.000002 -11.180186 2.228571 16.838669 -1.383134 -3.160530 -0.000010 -8.683011 1.531049 2.474382 0.197255 -0.236061 0.000001 -8.783381 0.768465 2.165745 -1.904681 -1.134907 -0.000006 -8.816945 0.000020 1.038241 -0.033814 0.346986 -0.000006 -11.336049 -1.133618 -17.225851 -5.083867 3.682846 0.000000 -7.643256 -0.668708 4.630605 1.322477 0.613751 -0.000008 -7.555882 -1.332302 11.426334 -0.033363 0.727095 -0.000013 -9.728111 0.000000 0.000004 -0.000000 -0.000000 0.000001 -8.097187 -5.270917 0.000000 12.692994 14.305419 -20.762398 -0.000015 0.000009 -37.955723 -51.513218 -98.557369 -29.048937 -0.000013 -0.000011 -5.525417 -25.755564 -2.407040 -22.031242 -0.000013 0.000000 1.421176 -5.115576 15.548910 -3.579256 2.890195 -2.661482 0.000001 -0.000002 -0.000002 -9.544662 -0.000032 0.061198 0.000001 0.000001 -0.000000 -0.000001 -8.097191 -5.270917 -0.000005 -14.386147 -11.555141 20.762390 -0.000043 0.000019 -44.343388 51.493561 109.089268 29.048931 -0.000008 -0.000015 -19.001071 27.300165 8.974918 22.031233 -0.000020 0.000004 0.143148 0.794072 -10.219963 3.579238 2.890216 -2.661507 0.000002 0.000005 -0.000001 9.544674 -0.000000 0.061174 0.000007 0.000001 0.000005 -10.825166 -0.000002 0.000010 -30.665241 23.846786 10.073144 -0.000002 43.678459 -0.000005 13.264905 -0.000001 0.000002 0.000001 36.488426 -0.000015 5.518050 18.151101 -4.598611 -0.000002 3.967834 -0.000026 -0.000000 0.000003 0.000001 0.000007 -0.000001 -15.539308 9.943984 -0.000002 0.000002 -0.000009 -0.000007 -3.487006 0.000001 0.000005 -0.000003 10.825162 0.000003 -0.000000 -32.172411 -17.858923 -11.458862 -0.000011 43.678444 0.000003 12.983408 0.000001 0.000002 -0.000004 36.488415 -0.000012 5.994280 15.055728 13.768971 -0.000001 3.967827 0.000003 0.000001 -0.000000 -0.000000 -0.000011 -0.000001 -15.539304 -5.801266 0.000001 0.000000 -0.000008 -0.000008 -3.974437 0.000000 -0.000000 -0.000000 
58.830734 -35.306053 -89.283089 71.354966 -175.575818 -3.189717 -0.000004 -11.180193 2.228560 16.890353 -1.337063 -2.969185 0.000000 -8.683003 1.531054 2.602893 0.199019 -0.233497 0.000006 -8.783381 0.768448 2.310902 -1.946375 -1.177319 -0.000005 -8.816938 0.000009 0.895122 -0.024701 0.263432 -0.000010 -11.336075 -1.133599 -17.459891 -5.216972 3.726401 -0.000001 -7.643220 -0.668703 4.695438 1.188402 0.599253 0.000009 -7.555838 -1.332302 11.275352 -0.045346 0.719278 0.000003 -9.728127 0.000003 0.000001 0.000000 -0.000000 -0.000011 -8.097206 -5.270915 -0.000008 12.444051 14.305128 -20.762388 -0.000004 0.000002 -38.570375 -50.614417 -98.291360 -29.048937 -0.000024 -0.000018 -5.441338 -25.309032 -2.331917 -22.031240 -0.000006 0.000010 1.420886 -4.988882 15.919860 -3.579277 2.890230 -2.661494 0.000007 0.000003 0.000001 -9.544686 0.000017 0.061187 0.000003 0.000003 -0.000001 -0.000010 -8.097206 -5.270915 -0.000003 -14.243046 -11.508444 20.762390 -0.000017 -0.000002 -44.460491 51.061873 108.694995 29.048941 -0.000013 -0.000013 -19.592039 27.246125 9.254896 22.031250 -0.000026 -0.000002 0.160326 0.885366 -10.265238 3.579264 2.890227 -2.661486 0.000003 0.000003 -0.000007 9.544679 0.000007 0.061193 0.000005 -0.000001 0.000001 -10.825183 0.000003 0.000002 -31.710157 23.243714 10.132967 0.000002 43.678448 0.000002 13.822719 -0.000000 0.000001 0.000000 36.488426 0.000010 5.491919 18.326560 -4.440149 0.000010 3.967827 -0.000006 -0.000001 -0.000003 0.000001 0.000002 0.000013 -15.539303 9.673798 -0.000002 -0.000001 -0.000015 0.000000 -3.486998 0.000002 0.000000 -0.000001 10.825156 -0.000006 0.000001 -32.955260 -17.901577 -11.888123 -0.000001 43.678436 0.000005 13.681274 0.000000 0.000002 -0.000013 36.488411 -0.000008 5.401738 13.405671 13.436720 0.000001 3.967834 0.000013 0.000001 -0.000000 0.000000 -0.000001 -0.000002 -15.539293 -6.140766 0.000001 0.000000 -0.000010 -0.000008 -3.974452 -0.000000 -0.000000 0.000001 
58.860085 -34.986176 -89.242851 70.782050 -175.321121 -3.495400 -0.000001 -11.180194 2.228566 16.947284 -1.264470 -2.700078 -0.000001 -8.682990 1.531047 2.736351 0.199157 -0.240439 -0.000002 -8.783397 0.768446 2.474355 -1.987583 -1.217076 -0.000005 -8.816920 0.000007 0.715886 -0.016877 0.172641 -0.000001 -11.336082 -1.133612 -17.740354 -5.358017 3.740213 0.000001 -7.643252 -0.668688 4.772263 1.053772 0.609238 -0.000005 -7.555833 -1.332283 11.173450 -0.053650 0.725448 0.000009 -9.728096 -0.000002 -0.000001 0.000000 0.000000 -0.000005 -8.097225 -5.270925 -0.000001 12.168883 14.337607 -20.762405 0.000000 0.000004 -39.209719 -49.604385 -98.073990 -29.048925 -0.000014 0.000000 -5.789167 -24.844052 -2.439163 -22.031237 -0.000023 -0.000003 1.480040 -5.009801 16.482128 -3.579242 2.890212 -2.661492 0.000007 -0.000000 0.000006 -9.544663 -0.000000 0.061183 0.000012 0.000002 -0.000001 -0.000005 -8.097221 -5.270920 -0.000005 -14.120527 -11.479857 20.762384 0.000032 -0.000012 -44.563439 50.636987 108.264352 29.048950 -0.000002 -0.000012 -20.240805 27.205487 9.568946 22.031219 0.000001 0.000010 0.187239 1.030213 -10.301946 3.579266 2.890217 -2.661500 0.000008 0.000010 -0.000004 9.544670 0.000002 0.061182 0.000003 0.000003 -0.000000 -10.825165 0.000010 0.000003 -32.844628 22.676020 10.265311 -0.000013 43.678448 -0.000013 14.460643 0.000009 0.000001 0.000009 36.488419 -0.000016 5.355569 18.503553 -4.425684 -0.000000 3.967827 -0.000017 -0.000000 0.000004 0.000000 -0.000004 -0.000008 -15.539315 9.767620 0.000001 -0.000000 0.000001 -0.000007 -3.486987 0.000001 0.000002 0.000000 10.825169 0.000017 -0.000000 -33.727563 -18.020773 -12.267175 0.000009 43.678448 -0.000001 14.373337 -0.000002 0.000002 -0.000008 36.488453 -0.000001 4.874511 11.499075 12.824553 0.000008 3.967827 0.000005 0.000001 -0.000000 -0.000001 -0.000003 -0.000009 -15.539296 -6.496728 0.000000 -0.000001 -0.000003 -0.000015 -3.974439 0.000000 0.000000 0.000000 
58.870018 -34.674034 -89.204048 70.253939 -175.091175 -3.793162 0.000002 -11.180190 2.228566 17.056827 -1.208070 -2.458622 -0.000002 -8.682986 1.531053 2.895623 0.203870 -0.255452 0.000005 -8.783411 0.768459 2.613802 -1.963199 -1.246876 0.000002 -8.816916 0.000008 0.549536 0.011942 0.130783 -0.000002 -11.336074 -1.133566 -18.005378 -5.518599 3.740106 -0.000007 -7.643252 -0.668692 4.834276 0.913131 0.607352 -0.000006 -7.555852 -1.332308 11.033755 -0.062753 0.709799 -0.000004 -9.728096 0.000003 0.000000 0.000000 -0.000000 -0.000003 -8.097195 -5.270875 -0.000001 11.873481 14.340109 -20.762405 0.000013 0.000019 -39.851114 -48.462900 -97.865136 -29.048931 -0.000013 -0.000016 -6.044434 -24.412184 -2.505872 -22.031229 -0.000018 0.000001 1.531669 -5.063390 16.855092 -3.579265 2.890198 -2.661484 0.000001 -0.000007 0.000005 -9.544714 -0.000001 0.061196 0.000001 0.000000 -0.000007 -0.000004 -8.097191 -5.270871 0.000001 -14.035319 -11.513185 20.762384 0.000002 0.000019 -44.724516 49.990684 107.865319 29.048952 -0.000024 -0.000005 -20.704856 27.042071 9.750449 22.031233 -0.000014 0.000003 0.207887 1.153037 -10.221936 3.579237 2.890225 -2.661513 0.000005 -0.000002 -0.000003 9.544677 0.000000 0.061158 -0.000001 0.000000 -0.000001 -10.825159 0.000009 -0.000003 -33.955114 22.210061 10.427522 -0.000000 43.678436 0.000006 15.111961 0.000004 0.000002 0.000003 36.488449 -0.000006 5.246493 18.553693 -4.362736 0.000017 3.967827 0.000009 -0.000001 -0.000002 0.000000 0.000005 -0.000004 -15.539300 9.831670 -0.000004 0.000002 -0.000001 -0.000008 -3.486987 0.000001 -0.000005 0.000002 10.825157 -0.000014 0.000005 -34.439204 -18.208441 -12.637929 -0.000006 43.678459 -0.000007 14.950820 0.000001 0.000001 -0.000004 36.488461 0.000004 4.483243 9.638776 12.007412 0.000004 3.967827 -0.000009 -0.000001 0.000000 -0.000001 -0.000002 0.000002 -15.539290 -6.863470 0.000001 -0.000000 -0.000004 -0.000008 -3.974441 -0.000000 0.000000 0.000000 
